<?xml version="1.0" encoding="UTF-8"?>
<svg version="1.1" xmlns="http://www.w3.org/2000/svg" width="250" height="86">
<path d="M0 0 C2.05008368 0.73136072 3.96486175 1.3943567 6.11328125 1.75390625 C6.95890625 1.30015625 7.80453125 0.84640625 8.67578125 0.37890625 C15.28390282 -2.74493304 21.81820262 -2.99496142 28.80078125 -0.87109375 C35.73393954 1.98957901 40.18537297 7.05874871 43.61328125 13.62890625 C44.86864236 21.47491316 44.83024355 28.55051648 41.11328125 35.75390625 C38.74498939 38.82035357 36.06055026 41.50851753 33.3046875 44.2265625 C32.54155746 44.99447617 31.77842743 45.76238983 30.99217224 46.55357361 C29.38527914 48.16385412 27.77211466 49.76789822 26.15307617 51.3659668 C23.66950292 53.82261652 21.213909 56.30500344 18.75976562 58.79101562 C17.19300824 60.3544716 15.62470194 61.91637727 14.0546875 63.4765625 C13.31916153 64.22220963 12.58363556 64.96785675 11.82582092 65.73609924 C11.1350798 66.41107956 10.44433868 67.08605988 9.73266602 67.78149414 C9.12882584 68.38135635 8.52498566 68.98121857 7.90284729 69.59925842 C6.11328125 70.75390625 6.11328125 70.75390625 4.10180664 70.62916565 C1.80912932 69.62003226 0.45672538 68.48448774 -1.32250977 66.72216797 C-1.97320938 66.08415253 -2.623909 65.44613708 -3.29432678 64.78878784 C-3.98610519 64.09407379 -4.67788361 63.39935974 -5.390625 62.68359375 C-6.47016701 61.61191452 -6.47016701 61.61191452 -7.57151794 60.51858521 C-9.09239356 59.00413314 -10.60939756 57.48578456 -12.12280273 55.96386719 C-14.4318194 53.6463695 -16.75879621 51.34807832 -19.08789062 49.05078125 C-20.56493387 47.5753509 -22.0408817 46.09882297 -23.515625 44.62109375 C-24.20942764 43.93852509 -24.90323029 43.25595642 -25.61805725 42.55270386 C-31.84938665 36.23110186 -34.37029886 30.45840664 -34.9453125 21.52734375 C-34.80045765 14.67088065 -32.27443428 9.24668778 -27.6328125 4.2578125 C-19.44406152 -2.79513856 -9.90363446 -3.64130077 0 0 Z M-25.13671875 11.06640625 C-29.01022614 17.01500689 -29.29601428 22.03265064 -27.88671875 28.75390625 C-26.89475902 31.77371726 -26.89475902 31.77371726 -24.88671875 33.75390625 C-22.90671875 33.75390625 -20.92671875 33.75390625 -18.88671875 33.75390625 C-15.25671875 27.15390625 -11.62671875 20.55390625 -7.88671875 13.75390625 C-3.38671875 25.00390625 -3.38671875 25.00390625 -1.63671875 30.37890625 C-1.13398437 31.91417969 -1.13398437 31.91417969 -0.62109375 33.48046875 C-0.37875 34.23070313 -0.13640625 34.9809375 0.11328125 35.75390625 C3.85452101 31.45840875 6.45479999 26.75490173 9.11328125 21.75390625 C9.62117188 22.62015625 10.1290625 23.48640625 10.65234375 24.37890625 C11.34070312 25.49265625 12.0290625 26.60640625 12.73828125 27.75390625 C13.41117188 28.86765625 14.0840625 29.98140625 14.77734375 31.12890625 C16.89649983 34.09748285 16.89649983 34.09748285 20.38671875 34.12890625 C21.28648438 34.00515625 22.18625 33.88140625 23.11328125 33.75390625 C23.11328125 35.73390625 23.11328125 37.71390625 23.11328125 39.75390625 C19.71250946 39.68372147 16.43540665 39.51355489 13.11328125 38.75390625 C10.98828125 36.19140625 10.98828125 36.19140625 10.11328125 33.75390625 C6.73959444 36.82903671 4.60426163 40.03909481 2.36328125 44.00390625 C1.7496875 45.0815625 1.13609375 46.15921875 0.50390625 47.26953125 C0.045 48.089375 -0.41390625 48.90921875 -0.88671875 49.75390625 C-1.18908447 48.80753296 -1.18908447 48.80753296 -1.49755859 47.84204102 C-2.4111613 44.99759331 -3.33626972 42.15702063 -4.26171875 39.31640625 C-4.57882813 38.32318359 -4.8959375 37.32996094 -5.22265625 36.30664062 C-5.53203125 35.36240234 -5.84140625 34.41816406 -6.16015625 33.4453125 C-6.44294434 32.57076416 -6.72573242 31.69621582 -7.01708984 30.79516602 C-7.70202947 28.57642416 -7.70202947 28.57642416 -9.88671875 27.75390625 C-10.29664062 28.52476563 -10.7065625 29.295625 -11.12890625 30.08984375 C-11.66773437 31.09273437 -12.2065625 32.095625 -12.76171875 33.12890625 C-13.29539062 34.12664063 -13.8290625 35.124375 -14.37890625 36.15234375 C-15.88671875 38.75390625 -15.88671875 38.75390625 -17.88671875 40.75390625 C-10.62671875 48.01390625 -3.36671875 55.27390625 4.11328125 62.75390625 C8.1249103 60.74809173 10.73167097 58.42557775 13.83203125 55.30078125 C14.37178589 54.76294006 14.91154053 54.22509888 15.46765137 53.67095947 C16.60638305 52.53358607 17.74260378 51.39369389 18.87646484 50.25146484 C20.60039043 48.5168768 22.33465932 46.79315643 24.0703125 45.0703125 C25.17902683 43.9602757 26.28712013 42.84961819 27.39453125 41.73828125 C27.90818237 41.22867859 28.4218335 40.71907593 28.9510498 40.19403076 C33.99410655 35.08573152 37.76227428 30.44307579 38.27734375 23.1953125 C37.88699366 17.38653136 35.71052734 12.35115234 31.61328125 8.25390625 C25.92096132 4.83851429 21.7817754 3.91409589 15.11328125 4.75390625 C11.05909409 6.19842336 7.67984604 8.37619639 4.11328125 10.75390625 C3.24703125 9.82578125 3.24703125 9.82578125 2.36328125 8.87890625 C-2.59690365 4.19428718 -7.1224256 4.32617456 -13.75 4.4375 C-19.07696056 4.97483973 -21.54177425 7.37160219 -25.13671875 11.06640625 Z " fill="#FFFFFF" transform="translate(40.88671875,8.24609375)"/>
<path d="M0 0 C3.75517909 3.75517909 4.95043576 7.12345059 7 12 C8.65 8.37 10.3 4.74 12 1 C14.31 1 16.62 1 19 1 C18.38353395 6.70698119 16.33719857 11.57537758 14.125 16.8125 C13.59712891 18.11864258 13.59712891 18.11864258 13.05859375 19.45117188 C12.71183594 20.27810547 12.36507812 21.10503906 12.0078125 21.95703125 C11.69473145 22.70960205 11.38165039 23.46217285 11.05908203 24.23754883 C10 26 10 26 7 27 C5.02 23.04 3.04 19.08 1 15 C0.51789063 15.86625 0.03578125 16.7325 -0.4609375 17.625 C-1.09257813 18.73875 -1.72421875 19.8525 -2.375 21 C-3.31472656 22.670625 -3.31472656 22.670625 -4.2734375 24.375 C-4.84320313 25.24125 -5.41296875 26.1075 -6 27 C-6.66 27 -7.32 27 -8 27 C-9.67557981 23.23306487 -11.33891867 19.46084826 -13 15.6875 C-13.47695312 14.61564453 -13.95390625 13.54378906 -14.4453125 12.43945312 C-14.89648438 11.41142578 -15.34765625 10.38339844 -15.8125 9.32421875 C-16.23144531 8.37635498 -16.65039062 7.42849121 -17.08203125 6.4519043 C-18 4 -18 4 -18 1 C-15.36 1 -12.72 1 -10 1 C-8.68 4.96 -7.36 8.92 -6 13 C-4.02 8.71 -2.04 4.42 0 0 Z " fill="#FFFFFF" transform="translate(112,25)"/>
<path d="M0 0 C4.24773991 2.8318266 7.68032066 5.35488925 11.375 8.75 C12.68597656 9.94882812 12.68597656 9.94882812 14.0234375 11.171875 C15.00183594 12.07679687 15.00183594 12.07679687 16 13 C16.33 9.04 16.66 5.08 17 1 C18.98 1 20.96 1 23 1 C23 9.58 23 18.16 23 27 C18.91304138 24.95652069 16.02837068 22.46513887 12.75 19.375 C12.19570312 18.859375 11.64140625 18.34375 11.0703125 17.8125 C9.7097288 16.54574965 8.35434163 15.27342185 7 14 C6.67 17.96 6.34 21.92 6 26 C4.02 26 2.04 26 0 26 C0 17.42 0 8.84 0 0 Z " fill="#FFFFFF" transform="translate(169,25)"/>
<path d="M0 0 C1.98 0 3.96 0 6 0 C6 1.65 6 3.3 6 5 C6.99 5 7.98 5 9 5 C9 6.65 9 8.3 9 10 C8.01 10 7.02 10 6 10 C6 13.96 6 17.92 6 22 C4.02 22 2.04 22 0 22 C0 18.04 0 14.08 0 10 C-1.32 9.67 -2.64 9.34 -4 9 C-4.99 10.65 -5.98 12.3 -7 14 C-6.6390625 14.49371094 -6.278125 14.98742188 -5.90625 15.49609375 C-5.21015625 16.45708984 -5.21015625 16.45708984 -4.5 17.4375 C-4.0359375 18.07558594 -3.571875 18.71367188 -3.09375 19.37109375 C-2 21 -2 21 -2 22 C-5.375 22.1875 -5.375 22.1875 -9 22 C-9.66 21.01 -10.32 20.02 -11 19 C-11.5259375 19.7425 -11.5259375 19.7425 -12.0625 20.5 C-14.94374289 22.73063966 -17.47009026 22.19980621 -21 22 C-19.99088542 20.2421875 -18.98177083 18.484375 -17.97265625 16.7265625 C-17.28280949 15.50201525 -16.62855462 14.25710923 -16 13 C-16.3609375 12.50628906 -16.721875 12.01257812 -17.09375 11.50390625 C-17.5578125 10.86324219 -18.021875 10.22257812 -18.5 9.5625 C-18.9640625 8.92441406 -19.428125 8.28632812 -19.90625 7.62890625 C-21 6 -21 6 -21 5 C-14.47692308 4.63076923 -14.47692308 4.63076923 -12.0625 6.5 C-11.711875 6.995 -11.36125 7.49 -11 8 C-10.34 7.01 -9.68 6.02 -9 5 C-6.8359375 4.70703125 -6.8359375 4.70703125 -4.375 4.8125 C-3.55773437 4.83957031 -2.74046875 4.86664063 -1.8984375 4.89453125 C-1.27195313 4.92933594 -0.64546875 4.96414062 0 5 C0 3.35 0 1.7 0 0 Z " fill="#FFFFFF" transform="translate(234,29)"/>
<path d="M0 0 C2.8125 1.0625 2.8125 1.0625 5 3 C5.8125 6.6875 5.8125 6.6875 6 10 C0.555 10.495 0.555 10.495 -5 11 C-3.01432292 10.96744792 -1.02864583 10.93489583 0.95703125 10.90234375 C3 11 3 11 6 12 C4.25 15.875 4.25 15.875 2 17 C-2.01338025 17.40288759 -5.72819523 17.50872191 -9.5 16 C-11.81870132 12.90839825 -12.33599042 9.83029078 -12 6 C-8.70553407 0.66069315 -6.16699815 -0.48368613 0 0 Z M-5 5 C-1 6 -1 6 -1 6 Z " fill="#FFFFFF" transform="translate(141,34)"/>
<path d="M0 0 C2.66959083 0.88986361 3.68765028 1.53147542 5.25 3.875 C6 6 6 6 6 10 C0.555 10.495 0.555 10.495 -5 11 C-3.72125 10.979375 -2.4425 10.95875 -1.125 10.9375 C2.75 10.875 2.75 10.875 5 12 C4.625 13.9375 4.625 13.9375 4 16 C0.51610083 17.74194959 -3.19900139 17.57670324 -7 17 C-10.50811779 14.56579582 -11.77376734 13.20657416 -12.5625 9 C-11.87642343 5.34092496 -10.57265686 3.64832324 -8 1 C-5.2201184 -0.3899408 -3.0813674 -0.18488204 0 0 Z M-5 5 C-1 6 -1 6 -1 6 Z " fill="#FFFFFF" transform="translate(207,34)"/>
<path d="M0 0 C1.98 0 3.96 0 6 0 C6 9.24 6 18.48 6 28 C4.02 28 2.04 28 0 28 C0 18.76 0 9.52 0 0 Z " fill="#FFFFFF" transform="translate(159,23)"/>
<path d="M0 0 C1.98 0 3.96 0 6 0 C6 9.24 6 18.48 6 28 C4.02 28 2.04 28 0 28 C0 18.76 0 9.52 0 0 Z " fill="#FFFFFF" transform="translate(150,23)"/>
<path d="M0 0 C0.99 0 1.98 0 3 0 C3.33 1.65 3.66 3.3 4 5 C4.804375 5.144375 5.60875 5.28875 6.4375 5.4375 C9 6 9 6 10 7 C10.23192865 8.51469448 10.41215238 10.03754562 10.5625 11.5625 C10.68818359 12.80193359 10.68818359 12.80193359 10.81640625 14.06640625 C10.87699219 14.70449219 10.93757813 15.34257813 11 16 C9.35 16 7.7 16 6 16 C6.66 15.67 7.32 15.34 8 15 C7.67 12.36 7.34 9.72 7 7 C5.68 7 4.36 7 3 7 C3 9.64 3 12.28 3 15 C3.66 15.33 4.32 15.66 5 16 C3.54207116 16.05399736 2.08357288 16.09279177 0.625 16.125 C-0.59316406 16.15980469 -0.59316406 16.15980469 -1.8359375 16.1953125 C-4 16 -4 16 -6 14 C-6.1953125 11.6171875 -6.1953125 11.6171875 -6.125 8.875 C-6.10695312 7.96492188 -6.08890625 7.05484375 -6.0703125 6.1171875 C-6.04710937 5.41851562 -6.02390625 4.71984375 -6 4 C-5.01 3.67 -4.02 3.34 -3 3 C-3 3.66 -3 4.32 -3 5 C-2.34 5.33 -1.68 5.66 -1 6 C-1.66 6 -2.32 6 -3 6 C-2.67 8.64 -2.34 11.28 -2 14 C-1.01 14.33 -0.02 14.66 1 15 C0.67 10.05 0.34 5.1 0 0 Z " fill="#FFFFFF" transform="translate(169,60)"/>
<path d="M0 0 C0.99 0 1.98 0 3 0 C3 4.95 3 9.9 3 15 C3.66 15.33 4.32 15.66 5 16 C0.38 16 -4.24 16 -9 16 C-9.33 14.68 -9.66 13.36 -10 12 C-7 10 -7 10 -4 10 C-4.33 9.01 -4.66 8.02 -5 7 C-6.65 7.66 -8.3 8.32 -10 9 C-10 8.01 -10 7.02 -10 6 C-7.6739143 5.61936779 -5.33944736 5.28730055 -3 5 C-2 6 -2 6 -1.90234375 8.06640625 C-1.91394531 8.89011719 -1.92554688 9.71382812 -1.9375 10.5625 C-1.94652344 11.38878906 -1.95554688 12.21507813 -1.96484375 13.06640625 C-1.97644531 13.70449219 -1.98804688 14.34257813 -2 15 C-1.01 15 -0.02 15 1 15 C0.67 10.05 0.34 5.1 0 0 Z M-8 12 C-7.67 12.99 -7.34 13.98 -7 15 C-6.01 14.67 -5.02 14.34 -4 14 C-4 13.34 -4 12.68 -4 12 C-5.32 12 -6.64 12 -8 12 Z " fill="#FFFFFF" transform="translate(158,60)"/>
<path d="M0 0 C1.65 0 3.3 0 5 0 C4.01 0.495 4.01 0.495 3 1 C3 2.98 3 4.96 3 7 C4.98 7 6.96 7 9 7 C8.67 4.69 8.34 2.38 8 0 C9.65 0 11.3 0 13 0 C12.01 0.495 12.01 0.495 11 1 C11 5.29 11 9.58 11 14 C11.66 14.33 12.32 14.66 13 15 C11.35 15 9.7 15 8 15 C8.33 12.69 8.66 10.38 9 8 C7.02 8 5.04 8 3 8 C3 9.98 3 11.96 3 14 C3.66 14.33 4.32 14.66 5 15 C3.35 15 1.7 15 0 15 C0 10.05 0 5.1 0 0 Z " fill="#FFFFFF" transform="translate(125,61)"/>
<path d="M0 0 C1.1446875 0.3403125 1.1446875 0.3403125 2.3125 0.6875 C2.6425 2.3375 2.9725 3.9875 3.3125 5.6875 C1.0025 5.6875 -1.3075 5.6875 -3.6875 5.6875 C-1.6802092 8.6984362 -0.84865776 9.31766497 2.3125 10.6875 C-0.5625 10.8125 -0.5625 10.8125 -3.6875 10.6875 C-5.6875 8.6875 -5.6875 8.6875 -6 5.75 C-5.6875 2.6875 -5.6875 2.6875 -4.5 0.75 C-2.6875 -0.3125 -2.6875 -0.3125 0 0 Z M-1.6875 0.6875 C-2.0175 1.6775 -2.3475 2.6675 -2.6875 3.6875 C-1.3675 3.6875 -0.0475 3.6875 1.3125 3.6875 C0.9825 2.6975 0.6525 1.7075 0.3125 0.6875 C-0.3475 0.6875 -1.0075 0.6875 -1.6875 0.6875 Z " fill="#FFFFFF" transform="translate(143.6875,65.3125)"/>
<path d="M0 0 C0.99 0 1.98 0 3 0 C3 1.65 3 3.3 3 5 C4.32 5.33 5.64 5.66 7 6 C5.68 6 4.36 6 3 6 C3 7.65 3 9.3 3 11 C2.01 11 1.02 11 0 11 C0 9.35 0 7.7 0 6 C-1.32 5.67 -2.64 5.34 -4 5 C-2.68 5 -1.36 5 0 5 C0 3.35 0 1.7 0 0 Z " fill="#FFFFFF" transform="translate(187,65)"/>
<path d="M0 0 C0.66 0 1.32 0 2 0 C2 1.65 2 3.3 2 5 C3.65 5 5.3 5 7 5 C7 5.33 7 5.66 7 6 C5.35 6 3.7 6 2 6 C2 7.65 2 9.3 2 11 C1.34 11 0.68 11 0 11 C0 9.35 0 7.7 0 6 C-1.32 5.67 -2.64 5.34 -4 5 C-2.68 5 -1.36 5 0 5 C0 3.35 0 1.7 0 0 Z " fill="#FFFFFF" transform="translate(203,65)"/>
<path d="" fill="#FFFFFF" transform="translate(0,0)"/>
</svg>
